<mxfile host="Electron" agent="Mozilla/5.0 (Windows NT 10.0; Win64; x64) AppleWebKit/537.36 (KHTML, like Gecko) draw.io/27.0.2 Chrome/134.0.6998.205 Electron/35.3.0 Safari/537.36" version="27.0.2">
  <diagram name="Страница — 1" id="zmNLEd5BNGzHC44gml74">
    <mxGraphModel dx="1348" dy="667" grid="0" gridSize="10" guides="1" tooltips="1" connect="1" arrows="1" fold="1" page="1" pageScale="1" pageWidth="1169" pageHeight="827" math="0" shadow="0">
      <root>
        <mxCell id="0" />
        <mxCell id="1" parent="0" />
        <mxCell id="8661OBFDFXbH6Ridoge--1" value="Автор" style="shape=umlActor;verticalLabelPosition=bottom;verticalAlign=top;html=1;outlineConnect=0;" parent="1" vertex="1">
          <mxGeometry x="804" y="358" width="30" height="60" as="geometry" />
        </mxCell>
        <mxCell id="8661OBFDFXbH6Ridoge--2" value="Студент" style="shape=umlActor;verticalLabelPosition=bottom;verticalAlign=top;html=1;outlineConnect=0;" parent="1" vertex="1">
          <mxGeometry x="902" y="473" width="30" height="60" as="geometry" />
        </mxCell>
        <mxCell id="8661OBFDFXbH6Ridoge--3" value="Авторизованный&lt;div&gt;пользователь&lt;/div&gt;" style="shape=umlActor;verticalLabelPosition=bottom;verticalAlign=top;html=1;outlineConnect=0;" parent="1" vertex="1">
          <mxGeometry x="699" y="474" width="30" height="60" as="geometry" />
        </mxCell>
        <mxCell id="8661OBFDFXbH6Ridoge--4" value="Админ" style="shape=umlActor;verticalLabelPosition=bottom;verticalAlign=top;html=1;outlineConnect=0;" parent="1" vertex="1">
          <mxGeometry x="379" y="358" width="30" height="60" as="geometry" />
        </mxCell>
        <mxCell id="8661OBFDFXbH6Ridoge--6" value="Неавторизованный&lt;div&gt;пользователь&lt;/div&gt;" style="shape=umlActor;verticalLabelPosition=bottom;verticalAlign=top;html=1;outlineConnect=0;" parent="1" vertex="1">
          <mxGeometry x="378" y="474" width="30" height="60" as="geometry" />
        </mxCell>
        <mxCell id="8661OBFDFXbH6Ridoge--9" value="Авторизация" style="ellipse;whiteSpace=wrap;html=1;" parent="1" vertex="1">
          <mxGeometry x="173" y="488" width="120" height="32" as="geometry" />
        </mxCell>
        <mxCell id="8661OBFDFXbH6Ridoge--10" value="" style="endArrow=classic;html=1;rounded=0;" parent="1" source="8661OBFDFXbH6Ridoge--6" target="8661OBFDFXbH6Ridoge--9" edge="1">
          <mxGeometry width="50" height="50" relative="1" as="geometry">
            <mxPoint x="491" y="448" as="sourcePoint" />
            <mxPoint x="541" y="398" as="targetPoint" />
          </mxGeometry>
        </mxCell>
        <mxCell id="8661OBFDFXbH6Ridoge--11" value="Просмотр каталога курсов" style="ellipse;whiteSpace=wrap;html=1;" parent="1" vertex="1">
          <mxGeometry x="516" y="539" width="120" height="52" as="geometry" />
        </mxCell>
        <mxCell id="8661OBFDFXbH6Ridoge--19" value="" style="endArrow=classic;html=1;rounded=0;" parent="1" source="8661OBFDFXbH6Ridoge--6" target="8661OBFDFXbH6Ridoge--11" edge="1">
          <mxGeometry width="50" height="50" relative="1" as="geometry">
            <mxPoint x="356" y="499" as="sourcePoint" />
            <mxPoint x="263" y="567" as="targetPoint" />
          </mxGeometry>
        </mxCell>
        <mxCell id="8661OBFDFXbH6Ridoge--21" value="" style="endArrow=classic;html=1;rounded=0;" parent="1" source="8661OBFDFXbH6Ridoge--3" target="8661OBFDFXbH6Ridoge--11" edge="1">
          <mxGeometry width="50" height="50" relative="1" as="geometry">
            <mxPoint x="559" y="354" as="sourcePoint" />
            <mxPoint x="609" y="304" as="targetPoint" />
          </mxGeometry>
        </mxCell>
        <mxCell id="8661OBFDFXbH6Ridoge--22" value="Управление профилем" style="ellipse;whiteSpace=wrap;html=1;" parent="1" vertex="1">
          <mxGeometry x="779.25" y="545" width="120" height="40" as="geometry" />
        </mxCell>
        <mxCell id="8661OBFDFXbH6Ridoge--23" value="" style="endArrow=classic;html=1;rounded=0;" parent="1" source="8661OBFDFXbH6Ridoge--3" target="8661OBFDFXbH6Ridoge--22" edge="1">
          <mxGeometry width="50" height="50" relative="1" as="geometry">
            <mxPoint x="559" y="354" as="sourcePoint" />
            <mxPoint x="609" y="304" as="targetPoint" />
          </mxGeometry>
        </mxCell>
        <mxCell id="8661OBFDFXbH6Ridoge--24" value="Просмотр подробной информации о курсе" style="ellipse;whiteSpace=wrap;html=1;" parent="1" vertex="1">
          <mxGeometry x="488" y="480" width="160" height="46" as="geometry" />
        </mxCell>
        <mxCell id="8661OBFDFXbH6Ridoge--25" value="" style="endArrow=classic;html=1;rounded=0;" parent="1" source="8661OBFDFXbH6Ridoge--6" target="8661OBFDFXbH6Ridoge--24" edge="1">
          <mxGeometry width="50" height="50" relative="1" as="geometry">
            <mxPoint x="376" y="445" as="sourcePoint" />
            <mxPoint x="541" y="398" as="targetPoint" />
          </mxGeometry>
        </mxCell>
        <mxCell id="8661OBFDFXbH6Ridoge--26" value="" style="endArrow=classic;html=1;rounded=0;" parent="1" source="8661OBFDFXbH6Ridoge--3" target="8661OBFDFXbH6Ridoge--24" edge="1">
          <mxGeometry width="50" height="50" relative="1" as="geometry">
            <mxPoint x="454" y="391" as="sourcePoint" />
            <mxPoint x="504" y="381" as="targetPoint" />
          </mxGeometry>
        </mxCell>
        <mxCell id="8661OBFDFXbH6Ridoge--29" value="Просмотр своей статистики по курсам" style="ellipse;whiteSpace=wrap;html=1;" parent="1" vertex="1">
          <mxGeometry x="1002" y="512" width="144" height="53" as="geometry" />
        </mxCell>
        <mxCell id="8661OBFDFXbH6Ridoge--30" value="Запись на курс" style="ellipse;whiteSpace=wrap;html=1;" parent="1" vertex="1">
          <mxGeometry x="857" y="427" width="120" height="29" as="geometry" />
        </mxCell>
        <mxCell id="8661OBFDFXbH6Ridoge--32" value="Прохождение тестирования в рамках курса" style="ellipse;whiteSpace=wrap;html=1;" parent="1" vertex="1">
          <mxGeometry x="995" y="306" width="120" height="66" as="geometry" />
        </mxCell>
        <mxCell id="8661OBFDFXbH6Ridoge--33" value="" style="endArrow=classic;html=1;rounded=0;" parent="1" source="8661OBFDFXbH6Ridoge--2" target="8661OBFDFXbH6Ridoge--30" edge="1">
          <mxGeometry width="50" height="50" relative="1" as="geometry">
            <mxPoint x="623" y="354" as="sourcePoint" />
            <mxPoint x="673" y="304" as="targetPoint" />
          </mxGeometry>
        </mxCell>
        <mxCell id="8661OBFDFXbH6Ridoge--34" value="" style="endArrow=classic;html=1;rounded=0;" parent="1" source="8661OBFDFXbH6Ridoge--2" target="8661OBFDFXbH6Ridoge--31" edge="1">
          <mxGeometry width="50" height="50" relative="1" as="geometry">
            <mxPoint x="918" y="352" as="sourcePoint" />
            <mxPoint x="1018" y="258" as="targetPoint" />
          </mxGeometry>
        </mxCell>
        <mxCell id="8661OBFDFXbH6Ridoge--37" value="&amp;lt;&amp;lt;extends&amp;gt;&amp;gt;" style="html=1;verticalAlign=bottom;labelBackgroundColor=none;endArrow=open;endFill=0;dashed=1;rounded=0;" parent="1" source="8661OBFDFXbH6Ridoge--32" target="8661OBFDFXbH6Ridoge--31" edge="1">
          <mxGeometry x="-0.4376" y="4" width="160" relative="1" as="geometry">
            <mxPoint x="1132.1211291296204" y="545.0043035765938" as="sourcePoint" />
            <mxPoint x="1106.8846822250125" y="529.2879568306254" as="targetPoint" />
            <Array as="points" />
            <mxPoint as="offset" />
          </mxGeometry>
        </mxCell>
        <mxCell id="8661OBFDFXbH6Ridoge--38" value="" style="endArrow=classic;html=1;rounded=0;" parent="1" source="8661OBFDFXbH6Ridoge--2" target="8661OBFDFXbH6Ridoge--29" edge="1">
          <mxGeometry width="50" height="50" relative="1" as="geometry">
            <mxPoint x="899" y="326" as="sourcePoint" />
            <mxPoint x="970" y="318" as="targetPoint" />
          </mxGeometry>
        </mxCell>
        <mxCell id="8661OBFDFXbH6Ridoge--39" value="&lt;div&gt;&lt;br&gt;&lt;/div&gt;&lt;div&gt;&lt;br&gt;&lt;/div&gt;" style="endArrow=block;endSize=16;endFill=0;html=1;rounded=0;" parent="1" source="8661OBFDFXbH6Ridoge--2" target="8661OBFDFXbH6Ridoge--3" edge="1">
          <mxGeometry width="160" relative="1" as="geometry">
            <mxPoint x="514" y="456" as="sourcePoint" />
            <mxPoint x="449" y="465" as="targetPoint" />
          </mxGeometry>
        </mxCell>
        <mxCell id="8661OBFDFXbH6Ridoge--40" value="&lt;div&gt;&lt;br&gt;&lt;/div&gt;&lt;div&gt;&lt;br&gt;&lt;/div&gt;" style="endArrow=block;endSize=16;endFill=0;html=1;rounded=0;" parent="1" source="8661OBFDFXbH6Ridoge--1" target="8661OBFDFXbH6Ridoge--3" edge="1">
          <mxGeometry width="160" relative="1" as="geometry">
            <mxPoint x="869" y="335" as="sourcePoint" />
            <mxPoint x="749" y="387" as="targetPoint" />
          </mxGeometry>
        </mxCell>
        <mxCell id="8661OBFDFXbH6Ridoge--41" value="&lt;div&gt;&lt;br&gt;&lt;/div&gt;&lt;div&gt;&lt;br&gt;&lt;/div&gt;" style="endArrow=block;endSize=16;endFill=0;html=1;rounded=0;" parent="1" source="8661OBFDFXbH6Ridoge--4" target="8661OBFDFXbH6Ridoge--3" edge="1">
          <mxGeometry width="160" relative="1" as="geometry">
            <mxPoint x="779" y="290" as="sourcePoint" />
            <mxPoint x="747" y="364" as="targetPoint" />
          </mxGeometry>
        </mxCell>
        <mxCell id="8661OBFDFXbH6Ridoge--42" value="Просмотр своих курсов" style="ellipse;whiteSpace=wrap;html=1;" parent="1" vertex="1">
          <mxGeometry x="896" y="366" width="120" height="44" as="geometry" />
        </mxCell>
        <mxCell id="8661OBFDFXbH6Ridoge--43" value="" style="endArrow=classic;html=1;rounded=0;" parent="1" source="8661OBFDFXbH6Ridoge--1" target="8661OBFDFXbH6Ridoge--42" edge="1">
          <mxGeometry width="50" height="50" relative="1" as="geometry">
            <mxPoint x="684" y="434" as="sourcePoint" />
            <mxPoint x="734" y="384" as="targetPoint" />
          </mxGeometry>
        </mxCell>
        <mxCell id="8661OBFDFXbH6Ridoge--44" value="Управление своими курсами" style="ellipse;whiteSpace=wrap;html=1;" parent="1" vertex="1">
          <mxGeometry x="620" y="337" width="139" height="55" as="geometry" />
        </mxCell>
        <mxCell id="8661OBFDFXbH6Ridoge--45" value="" style="endArrow=classic;html=1;rounded=0;" parent="1" source="8661OBFDFXbH6Ridoge--1" target="8661OBFDFXbH6Ridoge--44" edge="1">
          <mxGeometry width="50" height="50" relative="1" as="geometry">
            <mxPoint x="622" y="368" as="sourcePoint" />
            <mxPoint x="784" y="234" as="targetPoint" />
          </mxGeometry>
        </mxCell>
        <mxCell id="8661OBFDFXbH6Ridoge--46" value="Управление контентом своих курсов" style="ellipse;whiteSpace=wrap;html=1;" parent="1" vertex="1">
          <mxGeometry x="779.25" y="236" width="139" height="55" as="geometry" />
        </mxCell>
        <mxCell id="8661OBFDFXbH6Ridoge--47" value="" style="endArrow=classic;html=1;rounded=0;" parent="1" source="8661OBFDFXbH6Ridoge--1" target="8661OBFDFXbH6Ridoge--46" edge="1">
          <mxGeometry width="50" height="50" relative="1" as="geometry">
            <mxPoint x="854" y="310" as="sourcePoint" />
            <mxPoint x="855" y="282" as="targetPoint" />
          </mxGeometry>
        </mxCell>
        <mxCell id="8661OBFDFXbH6Ridoge--49" value="Отправка заявки на отображение курсов в каталоге" style="ellipse;whiteSpace=wrap;html=1;" parent="1" vertex="1">
          <mxGeometry x="641" y="272" width="163" height="61" as="geometry" />
        </mxCell>
        <mxCell id="8661OBFDFXbH6Ridoge--50" value="" style="endArrow=classic;html=1;rounded=0;" parent="1" source="8661OBFDFXbH6Ridoge--1" target="8661OBFDFXbH6Ridoge--49" edge="1">
          <mxGeometry width="50" height="50" relative="1" as="geometry">
            <mxPoint x="950" y="300" as="sourcePoint" />
            <mxPoint x="906" y="219" as="targetPoint" />
          </mxGeometry>
        </mxCell>
        <mxCell id="8661OBFDFXbH6Ridoge--52" value="Оценка результатов пройденных тестов" style="ellipse;whiteSpace=wrap;html=1;" parent="1" vertex="1">
          <mxGeometry x="620" y="401" width="139" height="55" as="geometry" />
        </mxCell>
        <mxCell id="8661OBFDFXbH6Ridoge--53" value="" style="endArrow=classic;html=1;rounded=0;" parent="1" source="8661OBFDFXbH6Ridoge--1" target="8661OBFDFXbH6Ridoge--52" edge="1">
          <mxGeometry width="50" height="50" relative="1" as="geometry">
            <mxPoint x="912" y="387.27318454691454" as="sourcePoint" />
            <mxPoint x="824" y="351.72" as="targetPoint" />
          </mxGeometry>
        </mxCell>
        <mxCell id="8661OBFDFXbH6Ridoge--54" value="Просмотр информации о пользователях" style="ellipse;whiteSpace=wrap;html=1;" parent="1" vertex="1">
          <mxGeometry x="173" y="363.5" width="165" height="49" as="geometry" />
        </mxCell>
        <mxCell id="8661OBFDFXbH6Ridoge--55" value="Управление доступом пользователей" style="ellipse;whiteSpace=wrap;html=1;" parent="1" vertex="1">
          <mxGeometry x="405" y="306" width="165" height="49" as="geometry" />
        </mxCell>
        <mxCell id="8661OBFDFXbH6Ridoge--56" value="Управление категориями курсов" style="ellipse;whiteSpace=wrap;html=1;" parent="1" vertex="1">
          <mxGeometry x="238" y="306" width="144" height="49" as="geometry" />
        </mxCell>
        <mxCell id="8661OBFDFXbH6Ridoge--57" value="Управление заявками на отображение курсов в каталоге" style="ellipse;whiteSpace=wrap;html=1;" parent="1" vertex="1">
          <mxGeometry x="293.75" y="242" width="200.5" height="64" as="geometry" />
        </mxCell>
        <mxCell id="8661OBFDFXbH6Ridoge--58" value="Управление доступом курсов" style="ellipse;whiteSpace=wrap;html=1;" parent="1" vertex="1">
          <mxGeometry x="460" y="363.5" width="144" height="49" as="geometry" />
        </mxCell>
        <mxCell id="8661OBFDFXbH6Ridoge--59" value="" style="endArrow=classic;html=1;rounded=0;" parent="1" source="8661OBFDFXbH6Ridoge--4" target="8661OBFDFXbH6Ridoge--57" edge="1">
          <mxGeometry width="50" height="50" relative="1" as="geometry">
            <mxPoint x="680" y="434" as="sourcePoint" />
            <mxPoint x="730" y="384" as="targetPoint" />
          </mxGeometry>
        </mxCell>
        <mxCell id="8661OBFDFXbH6Ridoge--60" value="" style="endArrow=classic;html=1;rounded=0;" parent="1" source="8661OBFDFXbH6Ridoge--4" target="8661OBFDFXbH6Ridoge--55" edge="1">
          <mxGeometry width="50" height="50" relative="1" as="geometry">
            <mxPoint x="574" y="321" as="sourcePoint" />
            <mxPoint x="421" y="411" as="targetPoint" />
          </mxGeometry>
        </mxCell>
        <mxCell id="8661OBFDFXbH6Ridoge--61" value="" style="endArrow=classic;html=1;rounded=0;" parent="1" source="8661OBFDFXbH6Ridoge--4" target="8661OBFDFXbH6Ridoge--54" edge="1">
          <mxGeometry width="50" height="50" relative="1" as="geometry">
            <mxPoint x="574" y="312" as="sourcePoint" />
            <mxPoint x="489" y="311" as="targetPoint" />
          </mxGeometry>
        </mxCell>
        <mxCell id="8661OBFDFXbH6Ridoge--62" value="" style="endArrow=classic;html=1;rounded=0;" parent="1" source="8661OBFDFXbH6Ridoge--4" target="8661OBFDFXbH6Ridoge--56" edge="1">
          <mxGeometry width="50" height="50" relative="1" as="geometry">
            <mxPoint x="574" y="317" as="sourcePoint" />
            <mxPoint x="438" y="351" as="targetPoint" />
          </mxGeometry>
        </mxCell>
        <mxCell id="8661OBFDFXbH6Ridoge--63" value="" style="endArrow=classic;html=1;rounded=0;" parent="1" source="8661OBFDFXbH6Ridoge--4" target="8661OBFDFXbH6Ridoge--58" edge="1">
          <mxGeometry width="50" height="50" relative="1" as="geometry">
            <mxPoint x="574" y="305" as="sourcePoint" />
            <mxPoint x="509" y="271" as="targetPoint" />
          </mxGeometry>
        </mxCell>
        <mxCell id="8661OBFDFXbH6Ridoge--31" value="Прохождение курса" style="ellipse;whiteSpace=wrap;html=1;" parent="1" vertex="1">
          <mxGeometry x="988" y="424" width="134" height="29" as="geometry" />
        </mxCell>
        <mxCell id="6oBGGTjBKi1KxMxNVQNl-3" value="Просмотр прогресса по курсам и урокам" style="ellipse;whiteSpace=wrap;html=1;" vertex="1" parent="1">
          <mxGeometry x="914.5" y="568" width="165" height="49" as="geometry" />
        </mxCell>
        <mxCell id="6oBGGTjBKi1KxMxNVQNl-5" value="Оценка пройденного курса" style="ellipse;whiteSpace=wrap;html=1;" vertex="1" parent="1">
          <mxGeometry x="1000" y="467" width="140" height="39" as="geometry" />
        </mxCell>
        <mxCell id="6oBGGTjBKi1KxMxNVQNl-7" value="Управление каталогом изображений" style="ellipse;whiteSpace=wrap;html=1;" vertex="1" parent="1">
          <mxGeometry x="844" y="294" width="126" height="61" as="geometry" />
        </mxCell>
        <mxCell id="6oBGGTjBKi1KxMxNVQNl-9" value="" style="endArrow=classic;html=1;rounded=0;" edge="1" parent="1" source="8661OBFDFXbH6Ridoge--2" target="6oBGGTjBKi1KxMxNVQNl-5">
          <mxGeometry width="50" height="50" relative="1" as="geometry">
            <mxPoint x="942" y="518" as="sourcePoint" />
            <mxPoint x="1011" y="544" as="targetPoint" />
          </mxGeometry>
        </mxCell>
        <mxCell id="6oBGGTjBKi1KxMxNVQNl-10" value="" style="endArrow=classic;html=1;rounded=0;" edge="1" parent="1" source="8661OBFDFXbH6Ridoge--2" target="6oBGGTjBKi1KxMxNVQNl-3">
          <mxGeometry width="50" height="50" relative="1" as="geometry">
            <mxPoint x="942" y="516" as="sourcePoint" />
            <mxPoint x="1022" y="535" as="targetPoint" />
          </mxGeometry>
        </mxCell>
        <mxCell id="6oBGGTjBKi1KxMxNVQNl-11" value="" style="endArrow=classic;html=1;rounded=0;" edge="1" parent="1" source="8661OBFDFXbH6Ridoge--1" target="6oBGGTjBKi1KxMxNVQNl-7">
          <mxGeometry width="50" height="50" relative="1" as="geometry">
            <mxPoint x="836" y="368" as="sourcePoint" />
            <mxPoint x="852" y="301" as="targetPoint" />
          </mxGeometry>
        </mxCell>
      </root>
    </mxGraphModel>
  </diagram>
</mxfile>
